<?xml version="1.0" standalone="no"?><!DOCTYPE svg PUBLIC "-//W3C//DTD SVG 1.1//EN" "http://www.w3.org/Graphics/SVG/1.1/DTD/svg11.dtd"><svg class="icon" width="200px" height="200.00px" viewBox="0 0 1024 1024" version="1.1" xmlns="http://www.w3.org/2000/svg"><path d="M379.30982741 489.34558037c-51.78153074 19.41807445-55.01787705 25.89076594-55.01787704 77.67229668v152.1082459c0 45.30883925 19.41807445 64.72691371 64.7269137 64.72691371h249.19861703c48.54518557 0 64.72691371-19.41807445 64.72691371-64.72691371v-155.34459221c0-48.54518557-19.41807445-67.96325888-67.96325888-67.96325888h-213.59881444v-67.96326002c0-51.78153074 38.83614777-93.85402482 87.38133334-93.85402368 51.78153074 0 90.61767851 35.59980259 93.85402368 90.61767851 0 16.18172814 3.23634517 32.36345629 22.65442076 29.12711111 19.41807445 0 22.65441963-16.18172814 19.41807332-32.36345629-3.23634517-71.19960519-61.49056739-129.45382741-132.69017259-129.45382741-67.96325888 0-126.2174811 55.01787705-132.69017259 122.98113593-3.23634517 19.41807445 0 48.54518557 0 74.43595036z m132.69017259 45.30883926h126.2174811c16.18172814 0 22.65441963 6.47269149 22.65441963 22.65441962v161.8172837c0 16.18172814-6.47269149 19.41807445-22.65441963 19.41807446h-252.4349622c-16.18172814 0-22.65441963-6.47269149-19.41807445-22.65441963v-165.05363001c0-12.94538297 6.47269149-19.41807445 19.41807445-19.41807332 42.07249408 3.23634517 84.14498816 3.23634517 126.2174811 3.23634518zM133.34755555 625.27209927c-32.36345629-226.54419741 58.25422222-381.88878962 268.61669149-466.03377778-3.23634517-22.65441963-6.47269149-45.30883925-9.70903666-64.7269137-233.01688889 55.01787705-391.59782741 313.92553074-317.16187705 553.41511111 19.41807445-6.47269149 38.83614777-16.18172814 58.25422222-22.65441963zM845.34360519 340.47367851c51.78153074 90.61767851 61.49056739 184.47170333 42.07249408 284.79842076 22.65441963 9.70903666 42.07249408 19.41807445 64.72691257 25.8907648C1026.57896334 382.54617259 835.63456739 136.58390073 631.74478962 94.51140779c-3.23634517 22.65441963-6.47269149 42.07249408-9.70903666 67.96325888 97.09036999 29.12711111 171.52632149 87.38133333 223.30785223 177.99901184zM515.23634517 923.01590073c-103.56306147 3.23634517-194.18074112-35.59980259-268.61669034-100.32671516-19.41807445 16.18172814-35.59980259 29.12711111-55.01787705 42.07249294 200.65343261 194.18074112 504.86992555 145.63555555 640.79644444-12.94538184-16.18172814-12.94538297-35.59980259-25.89076594-55.01787705-38.8361489-71.19960519 67.96325888-161.8172837 106.79940779-262.144 110.03575296zM230.43792555 745.01688889c0-45.30883925-35.59980259-84.14498816-80.90864185-84.14498816s-80.90864185 35.59980259-80.90864185 80.90864298 35.59980259 80.90864185 80.90864185 80.90864186c42.07249408 3.23634517 77.67229667-32.36345629 80.90864185-77.67229668zM877.70706147 664.10824704c-45.30883925 0-84.14498816 35.59980259-84.14498702 80.90864185 0 42.07249408 35.59980259 80.90864185 80.90864185 80.90864185s80.90864185-35.59980259 84.14498703-77.67229668c0-48.54518557-35.59980259-84.14498816-80.90864186-84.14498702zM512 191.60177778c45.30883925 0 80.90864185-35.59980259 84.14498816-77.67229668 0-45.30883925-35.59980259-84.14498816-80.90864299-84.14498702s-84.14498816 35.59980259-84.14498702 80.90864185 35.59980259 80.90864185 80.90864185 80.90864185zM492.58192555 667.34459221c3.23634517 6.47269149 6.47269149 12.94538297 6.47269148 19.41807446 0 6.47269149 6.47269149 12.94538297 12.94538297 19.41807445 3.23634517-6.47269149 12.94538297-12.94538297 12.94538297-19.41807445 0-9.70903666 0-16.18172814 6.47269148-19.41807446 19.41807445-6.47269149 32.36345629-25.89076594 32.36345629-48.54518442 0-29.12711111-22.65441963-51.78153074-51.78153074-51.78153074-29.12711111 0-51.78153074 22.65441963-51.78153074 51.78153074 0 22.65441963 12.94538297 42.07249408 32.36345629 48.54518442z m19.41807445-80.90864184c19.41807445 0 32.36345629 12.94538297 32.36345629 32.36345742s-12.94538297 32.36345629-32.36345629 32.36345628-32.36345629-12.94538297-32.36345629-32.36345628c0-16.18172814 16.18172814-32.36345629 32.36345629-32.36345742z" /></svg>