<?xml version="1.0" standalone="no"?><!DOCTYPE svg PUBLIC "-//W3C//DTD SVG 1.1//EN" "http://www.w3.org/Graphics/SVG/1.1/DTD/svg11.dtd"><svg class="icon" width="200px" height="200.00px" viewBox="0 0 1024 1024" version="1.1" xmlns="http://www.w3.org/2000/svg"><path d="M900.3614811 997.45185223H123.6385189a48.54518557 48.54518557 0 0 1-48.54518557-48.54518556V75.09333333a48.54518557 48.54518557 0 0 1 48.54518557-48.54518556h776.7229622a48.54518557 48.54518557 0 0 1 48.54518557 48.54518556v873.81333334a48.54518557 48.54518557 0 0 1-48.54518557 48.54518556z m-48.54518443-97.09037113V123.6385189H172.18370333v776.7229622h679.63259334zM269.27407445 220.72888889h194.18073998v194.18074112H269.27407445V220.72888889z m0 291.27111111h485.4518511v97.09036999H269.27407445v-97.09036999z m0 194.18074112h485.4518511v97.09036999H269.27407445v-97.09036999z m291.27111112-436.90666667h194.18073998v97.09037h-194.18073998V269.27407445z" /></svg>