<?xml version="1.0" standalone="no"?><!DOCTYPE svg PUBLIC "-//W3C//DTD SVG 1.1//EN" "http://www.w3.org/Graphics/SVG/1.1/DTD/svg11.dtd"><svg class="icon" width="200px" height="200.00px" viewBox="0 0 1024 1024" version="1.1" xmlns="http://www.w3.org/2000/svg"><path d="M981.67466667 368.18488889a508.24533333 508.24533333 0 0 0-109.22666667-162.01955556 508.24533333 508.24533333 0 0 0-162.01955555-109.22666666C647.50933333 70.31466667 580.83555555 56.88888889 512 56.88888889s-135.50933333 13.42577778-198.42844445 40.04977778a508.24533333 508.24533333 0 0 0-162.01955555 109.22666666 508.24533333 508.24533333 0 0 0-109.22666667 162.01955556C15.70133333 431.104 2.27555555 497.77777778 2.27555555 566.61333333c0 150.98311111 66.33244445 293.20533333 181.93066667 390.37155556l1.93422223 1.59288889c6.59911111 5.46133333 14.90488889 8.53333333 23.43822222 8.53333333h604.95644444c8.53333333 0 16.83911111-3.072 23.43822222-8.53333333l1.93422222-1.59288889C955.392 859.81866667 1021.72444445 717.59644445 1021.72444445 566.61333333c0-68.83555555-13.53955555-135.50933333-40.04977778-198.42844444zM795.76177778 880.64H228.23822222A422.25208889 422.25208889 0 0 1 88.74666667 566.61333333c0-113.09511111 44.032-219.36355555 124.01777778-299.23555555 79.98577778-79.98577778 186.25422222-124.01777778 299.23555555-124.01777778 113.09511111 0 219.36355555 44.032 299.23555555 124.01777778 79.98577778 79.98577778 124.01777778 186.25422222 124.01777778 299.23555555 0 120.14933333-50.63111111 233.81333333-139.49155555 314.02666667zM638.86222222 409.03111111a9.13635555 9.13635555 0 0 0-12.85688889 0L529.86311111 505.17333333c-21.27644445-5.68888889-44.82844445-0.22755555-61.55377778 16.49777778a63.65866667 63.65866667 0 0 0 0 90.112 63.65866667 63.65866667 0 0 0 90.112 0 63.56764445 63.56764445 0 0 0 16.49777778-61.55377778l96.14222222-96.14222222c3.52711111-3.52711111 3.52711111-9.32977778 0-12.85688889l-32.19911111-32.19911111zM486.96888889 293.54666667h50.06222222c5.00622222 0 9.10222222-4.096 9.10222222-9.10222222v-91.02222223c0-5.00622222-4.096-9.10222222-9.10222222-9.10222222h-50.06222222c-5.00622222 0-9.10222222 4.096-9.10222222 9.10222222v91.02222223c0 5.00622222 4.096 9.10222222 9.10222222 9.10222222z m295.82222222 248.03555555v50.06222223c0 5.00622222 4.096 9.10222222 9.10222222 9.10222222h91.02222222c5.00622222 0 9.10222222-4.096 9.10222223-9.10222222v-50.06222223c0-5.00622222-4.096-9.10222222-9.10222223-9.10222222h-91.02222222c-5.00622222 0-9.10222222 4.096-9.10222222 9.10222222z m14.44977778-224.36977777l-35.38488889-35.3848889a9.13635555 9.13635555 0 0 0-12.85688889 0l-64.39822222 64.39822223a9.13635555 9.13635555 0 0 0 0 12.85688889l35.38488889 35.38488888c3.52711111 3.52711111 9.32977778 3.52711111 12.85688889 0l64.39822222-64.39822222c3.52711111-3.52711111 3.52711111-9.32977778 0-12.85688888z m-521.78488889-35.3848889a9.13635555 9.13635555 0 0 0-12.85688889 0l-35.38488889 35.3848889a9.13635555 9.13635555 0 0 0 0 12.85688888l64.39822223 64.39822222c3.52711111 3.52711111 9.32977778 3.52711111 12.85688888 0l35.38488889-35.38488888c3.52711111-3.52711111 3.52711111-9.32977778 0-12.85688889l-64.39822222-64.39822223zM227.55555555 532.48h-91.02222222c-5.00622222 0-9.10222222 4.096-9.10222222 9.10222222v50.06222223c0 5.00622222 4.096 9.10222222 9.10222222 9.10222222h91.02222222c5.00622222 0 9.10222222-4.096 9.10222223-9.10222222v-50.06222223c0-5.00622222-4.096-9.10222222-9.10222223-9.10222222z" /></svg>