<?xml version="1.0" standalone="no"?><!DOCTYPE svg PUBLIC "-//W3C//DTD SVG 1.1//EN" "http://www.w3.org/Graphics/SVG/1.1/DTD/svg11.dtd"><svg class="icon" width="200px" height="200.00px" viewBox="0 0 1024 1024" version="1.1" xmlns="http://www.w3.org/2000/svg"><path d="M1011.04450333 749.26459221L773.90127445 512l224.03602888-224.03603001c14.19946667-14.19946667 14.19946667-37.25843001 0-51.45789554L787.61528889 26.06269667c-14.19946667-14.19946667-37.25843001-14.19946667-51.45789668 0L512 250.09872555 432.87134777 170.97007445c-0.12136334-0.12136334-0.12136334-0.24272555-0.24272555-0.24272668-0.12136334-0.12136334-0.24272555-0.12136334-0.24272555-0.24272555L274.73540779 12.95549667c-14.19946667-14.19946667-37.25843001-14.19946667-51.45789668 0L12.95549667 223.27751111c-14.19946667 14.19946667-14.19946667 37.25843001 0 51.45789668L250.22008889 512 26.06269667 736.03603001c-6.79632555 6.79632555-10.67994112 16.01991111-10.67994112 25.72894777v210.32201443c0 20.14625223 16.26263666 36.40888889 36.4088889 36.40888889h210.32201443c9.70903666 0 18.93262222-3.88361443 25.72894891-10.67993998L512 773.77991111l237.26459221 237.26459222c7.16041443 7.16041443 16.384 10.67994112 25.72894891 10.67994112s18.68989667-3.51952555 25.72894777-10.67994112l210.32201444-210.32201444c14.19946667-14.19946667 14.19946667-37.25843001 0-51.45789668zM761.76497778 103.37090333l158.86411889 158.86411889-106.31395555 106.31395556-158.74275555-158.98548111 106.19259221-106.19259334z m-671.62263666 145.63555555l158.86411776-158.86411776 106.31395555 106.31395555-53.15697777 53.15697778c-14.19946667 14.19946667-14.19946667 37.25843001 0 51.45789554 7.16041443 7.16041443 16.384 10.67994112 25.72894891 10.67994112s18.68989667-3.51952555 25.72894776-10.67994112l53.15697778-53.15697778 53.76379222 53.64243001-158.86411776 158.98548111-211.53564445-211.53564445z m156.92231111 686.79300779H88.20053333V776.93534777l515.79259222-515.79259222 158.8641189 158.8641189-515.79259222 515.79259222z m527.92888889-1.94180779L563.45789667 722.32201443l158.86411776-158.86411776 53.64243002 53.64242888-53.15697778 53.15697778c-14.19946667 14.19946667-14.19946667 37.25843001 0 51.45789667 7.16041443 7.16041443 16.384 10.67994112 25.72894776 10.67994112s18.68989667-3.51952555 25.72894891-10.67994112l53.15697778-53.15697778 106.31395555 106.31395556-158.74275555 158.9854811z" /></svg>