<?xml version="1.0" standalone="no"?><!DOCTYPE svg PUBLIC "-//W3C//DTD SVG 1.1//EN" "http://www.w3.org/Graphics/SVG/1.1/DTD/svg11.dtd"><svg class="icon" width="200px" height="200.00px" viewBox="0 0 1024 1024" version="1.1" xmlns="http://www.w3.org/2000/svg"><path d="M408.89721809 114.31784297C408.89721809 58.34776206 456.02991909 11.21506105 512 11.21506105s103.10278191 47.13269964 103.10278191 103.10278192S567.97008091 217.42062487 512 217.42062487s-103.10278191-47.13269964-103.10278191-103.1027819zM411.84301277 512c0-55.97008091 47.13269964-103.10278191 103.10278053-103.10278191s103.10278191 47.13269964 103.1027819 103.10278191-47.13269964 103.10278191-103.1027819 103.10278191-103.10278191-47.13269964-103.10278053-103.10278191zM408.89721809 909.68215703c0-55.97008091 47.13269964-103.10278191 103.10278191-103.1027819s103.10278191 47.13269964 103.10278191 103.1027819S567.97008091 1012.78493895 512 1012.78493895s-103.10278191-47.13269964-103.10278191-103.10278192z" /></svg>