<?xml version="1.0" standalone="no"?><!DOCTYPE svg PUBLIC "-//W3C//DTD SVG 1.1//EN" "http://www.w3.org/Graphics/SVG/1.1/DTD/svg11.dtd"><svg class="icon" width="200px" height="200.00px" viewBox="0 0 1024 1024" version="1.1" xmlns="http://www.w3.org/2000/svg"><path d="M434.91949258 8.97941504l157.88928507 0.20712531c49.02971225 0.08876851 88.76833845 39.79780521 88.82751746 88.85710697l0.05917901 25.74281872a419.04573766 419.04573766 0 0 1 86.34200397 48.4971024l21.1268646-12.1908526a88.97546498 88.97546498 0 0 1 121.31672975 32.5483913l79.15176785 136.61447297a88.97546498 88.97546498 0 0 1-27.78448964 118.71285824l-4.82307945 2.95894433-21.21563311 12.2500316a414.42978353 414.42978353 0 0 1-1.56824128 101.90605274l15.00184941 8.69929718a88.97546498 88.97546498 0 0 1 35.03390477 116.90790093l-2.45592398 4.61595412-74.15115261 128.41819614a88.97546498 88.97546498 0 0 1-116.90790213 35.03390478l-4.61595292-2.48551348-20.50548622-11.83577854a414.9623934 414.9623934 0 0 1-82.8800393 46.21871543l0.02958951 35.2706196a88.97546498 88.97546498 0 0 1-83.44223866 88.91628597l-5.62199483 0.17753581-157.91887337-0.20712531a88.97546498 88.97546498 0 0 1-88.82751746-88.85710697l-0.05917901-42.52003472a420.64356724 420.64356724 0 0 1-69.62396699-41.30686627l-37.81531207 21.77783247a88.97546498 88.97546498 0 0 1-121.34631925-32.5483913l-79.15176907-136.61447297a88.97546498 88.97546498 0 0 1 27.81407915-118.71285824l4.79349115-2.95894433 38.49586945-22.19208552c-2.95894433-28.10997419-3.10689185-56.63420021-0.26630553-85.09924725l-42.72716003-24.67759778a88.97546498 88.97546498 0 0 1-35.06349428-116.90790214l2.48551348-4.61595292 74.1511526-128.41819735a88.97546498 88.97546498 0 0 1 116.90790214-35.03390355l4.61595413 2.48551347 37.28270223 21.51152693a414.1930675 414.1930675 0 0 1 78.41203147-48.20120735l-0.05917901-33.85032704a88.97546498 88.97546498 0 0 1 83.44223865-88.91628597L434.91949258 8.97941504z m-0.11835802 88.97546377l0.08876851 90.39575874-51.1305634 24.08580892c-21.89619049 10.26753726-42.54962422 22.9614102-61.60522596 37.81531209l-47.25434566 36.89803987-86.96338234-50.24287949-2.24879867-1.24275673-74.12156309 128.41819614 92.52619939 53.40895034-5.74035285 57.16681008a325.7798031 325.7798031 0 0 0 0.20712531 66.87214797l6.0954269 57.58106313-88.67957115 51.07138438 79.12217956 136.61447297 88.05819157-50.65713254 46.69214629 34.20539988a330.81000907 330.81000907 0 0 0 54.88842313 32.54839129l51.04179488 23.99704041 0.1775358 98.94710841 157.85969558 0.20712652-0.08876851-94.68622833 54.85883362-22.84305218a326.01651792 326.01651792 0 0 0 65.09678136-36.30625102l46.66255679-33.554432 70.27493486 40.5671311 74.0919736-128.41819614-66.87214797-38.70299598 8.28504412-59.32684022a325.48390806 325.48390806 0 0 0 1.24275675-80.03945177l-6.21378371-57.64024093 71.5176916-41.27727797-79.15176785-136.61447297L762.32671474 278.24337473l-46.72173579-34.08704187a330.86918807 330.86918807 0 0 0-68.02613619-38.22956391l-54.7404756-22.72469538-0.14794752-85.04006824-157.88928508-0.20712652z m177.06324605 255.35692071a178.12846577 178.12846577 0 0 1 65.15596037 243.16606934 177.68462442 177.68462442 0 0 1-242.92935331 65.09678137 178.12846577 178.12846577 0 0 1-65.12637087-243.16606812 177.68462442 177.68462442 0 0 1 242.92935331-65.09678259z m-165.84884588 109.54013022a89.18259029 89.18259029 0 0 0 32.60757029 121.70139207 88.73874895 88.73874895 0 0 0 121.31672853-32.48921107c23.70114659-41.09974096 10.94809463-93.23634506-28.13956248-118.97916377l-4.4384171-2.75181902-4.61595413-2.48551349a88.73874895 88.73874895 0 0 0-116.73036511 35.00431528z" /></svg>