<?xml version="1.0" standalone="no"?><!DOCTYPE svg PUBLIC "-//W3C//DTD SVG 1.1//EN" "http://www.w3.org/Graphics/SVG/1.1/DTD/svg11.dtd"><svg class="icon" width="200px" height="200.00px" viewBox="0 0 1024 1024" version="1.1" xmlns="http://www.w3.org/2000/svg"><path d="M479.232 828.64355555L909.53955555 398.22222222c1.93422222-1.93422222 2.84444445-4.55111111 2.6168889-7.168l-29.01333334-342.92622222c-0.79644445-8.87466667-7.73688889-15.81511111-16.61155556-16.61155555L523.60533333 2.61688889c-2.61688889-0.22755555-5.34755555 0.68266667-7.168 2.61688889L86.12977778 435.54133333c-3.52711111 3.52711111-3.52711111 9.32977778 0 12.85688889l380.24533333 380.24533333c3.52711111 3.64088889 9.32977778 3.64088889 12.85688889 0z m71.22488889-741.48977777l255.54488889 21.61777777 21.61777777 255.5448889L472.74666667 719.07555555 195.584 442.02666667l354.87288889-354.87288889zM618.90429383 299.03784619a54.61333333 54.61333333 0 1 0 77.23356843-77.23626382 54.61333333 54.61333333 0 1 0-77.23356843 77.23626382ZM941.73866667 543.63022222l-45.056-44.94222222c-3.52711111-3.52711111-9.32977778-3.52711111-12.85688889 0l-411.87555556 411.07911111-270.336-269.65333333c-3.52711111-3.52711111-9.32977778-3.52711111-12.85688889 0l-45.056 44.94222222c-3.52711111 3.52711111-3.52711111 9.32977778 0 12.85688889l276.70755556 276.25244444 45.056 44.94222222c3.52711111 3.52711111 9.32977778 3.52711111 12.85688889 0l463.41688889-462.62044444c3.52711111-3.52711111 3.52711111-9.32977778 0-12.85688889z" /></svg>