<?xml version="1.0" standalone="no"?><!DOCTYPE svg PUBLIC "-//W3C//DTD SVG 1.1//EN" "http://www.w3.org/Graphics/SVG/1.1/DTD/svg11.dtd"><svg class="icon" width="200px" height="200.00px" viewBox="0 0 1024 1024" version="1.1" xmlns="http://www.w3.org/2000/svg"><path d="M420.97813333 102.4c40.7776 0 77.36853333 17.88586667 102.4 46.21653333a136.2144 136.2144 0 0 1 96.00533334-46.08l6.39466666-0.13653333h250.3104a136.53333333 136.53333333 0 0 1 136.44266667 131.41333333l0.09066667 5.12v546.13333334a136.53333333 136.53333333 0 0 1-131.41333334 136.44266666l-5.12 0.09066667h-256.18133333a124.9056 124.9056 0 0 1-96.52906667 45.51146667A124.9056 124.9056 0 0 1 426.848 921.6H170.66666667A136.53333333 136.53333333 0 0 1 34.13333333 785.06666667V238.93333333a136.53333333 136.53333333 0 0 1 136.53333334-136.53333333h250.31146666zM467.62666667 853.33333333a56.88853333 56.88853333 0 0 0 111.50186666 0h296.96l4.00533334-0.11413333a68.26666667 68.26666667 0 0 0 64.14826666-64.1472l0.11306667-4.00533333V238.93333333l-0.11306667-4.00533333A68.26666667 68.26666667 0 0 0 876.08853333 170.66666667H625.77813333l-4.00533333 0.11413333a68.26666667 68.26666667 0 0 0-64.14826667 64.1472l-0.11306666 4.00533333v491.52a9.10186667 9.10186667 0 0 1-9.10293334 9.10186667H498.34666667a9.10186667 9.10186667 0 0 1-9.10186667-9.10186667V238.93333333a68.26666667 68.26666667 0 0 0-60.30293333-67.8112l-3.95946667-0.34133333-4.00426667-0.11413333H170.66666667a68.26666667 68.26666667 0 0 0-68.15253334 64.26133333L102.4 238.93333333v546.13333334a68.26666667 68.26666667 0 0 0 64.26133333 68.15253333L170.66666667 853.33333333h296.96zM179.76853333 398.22186667h232.10666667c5.00693333 0 9.10293333 4.096 9.10293333 9.10293333V457.38666667a9.10186667 9.10186667 0 0 1-9.10293333 9.10186666h-232.10666667A9.10186667 9.10186667 0 0 1 170.66666667 457.38666667v-50.06186667c0-5.00693333 4.096-9.10293333 9.10186666-9.10293333z m0 136.53333333h232.10666667c5.00693333 0 9.10293333 4.096 9.10293333 9.10293333V593.92a9.10186667 9.10186667 0 0 1-9.10293333 9.10186667h-232.10666667A9.10186667 9.10186667 0 0 1 170.66666667 593.92v-50.06186667c0-5.00693333 4.096-9.10293333 9.10186666-9.10293333z m455.11146667-136.53333333h232.10666667c5.00586667 0 9.10186667 4.096 9.10186666 9.10293333V457.38666667a9.10186667 9.10186667 0 0 1-9.10186666 9.10186666H634.88a9.10186667 9.10186667 0 0 1-9.10186667-9.10186666v-50.06186667c0-5.00693333 4.096-9.10293333 9.10186667-9.10293333z m0 136.53333333h232.10666667c5.00586667 0 9.10186667 4.096 9.10186666 9.10293333V593.92a9.10186667 9.10186667 0 0 1-9.10186666 9.10186667H634.88a9.10186667 9.10186667 0 0 1-9.10186667-9.10186667v-50.06186667c0-5.00693333 4.096-9.10293333 9.10186667-9.10293333z" /></svg>