<?xml version="1.0" standalone="no"?><!DOCTYPE svg PUBLIC "-//W3C//DTD SVG 1.1//EN" "http://www.w3.org/Graphics/SVG/1.1/DTD/svg11.dtd"><svg class="icon" width="200px" height="200.00px" viewBox="0 0 1024 1024" version="1.1" xmlns="http://www.w3.org/2000/svg"><path d="M512 926.25224691c-231.98125827 0-414.25224691-182.27098864-414.25224691-414.25224691s182.27098864-414.25224691 414.25224691-414.25224691 414.25224691 182.27098864 414.25224691 414.25224691S743.98125827 926.25224691 512 926.25224691M512 1009.1026963c273.40648297 0 497.1026963-223.69621333 497.1026963-497.1026963s-223.69621333-497.1026963-497.1026963-497.1026963S14.8973037 238.59351703 14.8973037 512 238.59351703 1009.1026963 512 1009.1026963L512 1009.1026963zM884.82702222 512c0-207.12612347-165.70089876-372.82702222-372.82702222-372.82702222l0 745.65404444C719.12612347 884.82702222 884.82702222 719.12612347 884.82702222 512zM470.57477531 636.27567408L164.02811259 636.27567408C172.31315753 652.84576395 180.59820247 677.70089876 188.88324741 694.27098864l281.6915279 0L470.57477531 636.27567408zM470.57477531 387.72432592L470.57477531 329.72901136 188.88324741 329.72901136C180.59820247 346.29910124 172.31315753 371.15423605 164.02811259 387.72432592L470.57477531 387.72432592zM470.57477531 238.59351703L470.57477531 180.59820247 346.29910124 180.59820247C313.15892148 197.16829235 288.30378667 213.73838222 263.44865185 238.59351703L470.57477531 238.59351703zM139.17297778 545.14017975l331.40179753 0L470.57477531 487.14486518l-331.40179753 0c0 8.28504494 0 16.57008987 0 24.85513482S139.17297778 528.57008987 139.17297778 545.14017975zM470.57477531 785.40648297L263.44865185 785.40648297c24.85513482 24.85513482 49.71026963 41.42522469 82.85044939 57.99531456l124.27567407 0L470.57477531 785.40648297z" /></svg>