<?xml version="1.0" standalone="no"?><!DOCTYPE svg PUBLIC "-//W3C//DTD SVG 1.1//EN" "http://www.w3.org/Graphics/SVG/1.1/DTD/svg11.dtd"><svg class="icon" width="200px" height="200.00px" viewBox="0 0 1024 1024" version="1.1" xmlns="http://www.w3.org/2000/svg"><path d="M172.18370333 317.81925888v582.54222222h679.63259334V317.81925888H172.18370333z m0-97.09036999h679.63259334V123.6385189H172.18370333v97.09036999z m728.17777777 776.72296334H123.6385189a48.54518557 48.54518557 0 0 1-48.54518557-48.54518556V75.09333333a48.54518557 48.54518557 0 0 1 48.54518557-48.54518556h776.7229622a48.54518557 48.54518557 0 0 1 48.54518557 48.54518556v873.81333334a48.54518557 48.54518557 0 0 1-48.54518557 48.54518556zM269.27407445 414.90963001h194.18073998v194.18073998H269.27407445v-194.18073998z m0 291.27111111h485.4518511v97.09036999H269.27407445v-97.09036999z m291.27111112-242.72592669h194.18073998v97.09037114h-194.18073998v-97.09037114z" /></svg>