<?xml version="1.0" standalone="no"?><!DOCTYPE svg PUBLIC "-//W3C//DTD SVG 1.1//EN" "http://www.w3.org/Graphics/SVG/1.1/DTD/svg11.dtd"><svg class="icon" width="200px" height="200.00px" viewBox="0 0 1024 1024" version="1.1" xmlns="http://www.w3.org/2000/svg"><path d="M512 23.60888888c-45.83879111 0-78.35192889 32.40391111-94.44465778 72.81777778H111.50222222v910.22222222h800.99555556V96.42666666h-306.05312C590.35192889 56.0128 557.83879111 23.60888888 512 23.60888888z m0 72.81777778c20.20693333 0 36.40888889 16.20195555 36.40888889 36.40888889v36.40888889h109.22666666v72.81777778h-291.2711111V169.24444444h109.22666666V132.83555555c0-20.20693333 16.20195555-36.40888889 36.40888889-36.40888889zM184.32 169.24444444h109.22666667v145.63555556h436.90666666V169.24444444h109.22666667v764.58666667H184.32V169.24444444z m72.81777778 218.45333334v182.04444444h182.04444444v-182.04444444H257.13777778z m254.86222222 36.40888888v72.81777778h254.86222222v-72.81777778h-254.86222222z m-182.04444445 36.40888889h36.4088889v36.40888889h-36.4088889v-36.40888889z m-72.81777777 182.04444445v182.04444444h182.04444444v-182.04444444H257.13777778z m254.86222222 36.40888888v72.81777778h254.86222222v-72.81777778h-254.86222222z" /></svg>