<?xml version="1.0" standalone="no"?><!DOCTYPE svg PUBLIC "-//W3C//DTD SVG 1.1//EN" "http://www.w3.org/Graphics/SVG/1.1/DTD/svg11.dtd"><svg class="icon" width="200px" height="200.00px" viewBox="0 0 1024 1024" version="1.1" xmlns="http://www.w3.org/2000/svg"><path d="M748.71556961 423.23166155a266.30501535 266.30501535 0 1 1 0 532.61003192 266.30501535 266.30501535 0 0 1 0-532.61003192z m-289.97657244 118.3281947c-14.08457599 27.54777483-24.38170397 57.40352611-30.15164632 88.76833965L216.10553769 630.35778541v177.5366769h229.31820817a325.24719324 325.24719324 0 0 0 52.22537261 88.76833845H216.10553769a88.76833845 88.76833845 0 0 1-88.76833845-88.76833845v-177.5366769a88.76833845 88.76833845 0 0 1 88.76833845-88.76833966l242.63345948-0.0295895zM748.71556961 512a177.5366769 177.5366769 0 1 0 0 355.07335502 177.5366769 177.5366769 0 0 0 0-355.07335502z m39.91616322 78.44162219L788.60214333 659.94723116h69.53519847v88.76833845h-69.53519847v69.50560896h-88.76833846V748.71556961H630.35778541v-88.76833845h69.47601946v-69.50560897h88.76833846zM807.89446231 68.15830653a88.76833845 88.76833845 0 0 1 88.76833845 88.76833845v177.53667812c0 21.15645409-7.39736144 40.5671311-19.73616032 55.83528483A324.21156181 324.21156181 0 0 0 748.71556961 364.05276884c-69.68314599 0-134.2473175 21.89619049-187.182837 59.17889271H97.74775349a88.76833845 88.76833845 0 0 1-88.76833845-88.76833845V156.92664498a88.76833845 88.76833845 0 0 1 88.76833845-88.76833845h710.14670882z m0 88.76833845H97.74775349v177.53667812h710.14670882V156.92664498z" /></svg>