<?xml version="1.0" standalone="no"?><!DOCTYPE svg PUBLIC "-//W3C//DTD SVG 1.1//EN" "http://www.w3.org/Graphics/SVG/1.1/DTD/svg11.dtd"><svg class="icon" width="200px" height="200.00px" viewBox="0 0 1024 1024" version="1.1" xmlns="http://www.w3.org/2000/svg"><path d="M317.81925888 26.54814777h-145.63555555a145.63555555 145.63555555 0 0 0-145.63555556 145.63555556v145.63555555a145.63555555 145.63555555 0 0 0 145.63555556 145.63555555h145.63555555a145.63555555 145.63555555 0 0 0 145.63555555-145.63555555v-145.63555555a145.63555555 145.63555555 0 0 0-145.63555555-145.63555556z m48.54518557 291.27111111a48.54518557 48.54518557 0 0 1-48.54518557 48.54518557h-145.63555555a48.54518557 48.54518557 0 0 1-48.54518443-48.54518557v-145.63555555a48.54518557 48.54518557 0 0 1 48.54518443-48.54518443h145.63555555a48.54518557 48.54518557 0 0 1 48.54518557 48.54518443zM317.81925888 560.54518557h-145.63555555a145.63555555 145.63555555 0 0 0-145.63555556 145.63555555v145.63555555a145.63555555 145.63555555 0 0 0 145.63555556 145.63555556h145.63555555a145.63555555 145.63555555 0 0 0 145.63555555-145.63555556v-145.63555555a145.63555555 145.63555555 0 0 0-145.63555555-145.63555555z m48.54518557 291.2711111a48.54518557 48.54518557 0 0 1-48.54518557 48.54518443h-145.63555555a48.54518557 48.54518557 0 0 1-48.54518443-48.54518443v-145.63555555a48.54518557 48.54518557 0 0 1 48.54518443-48.54518557h145.63555555a48.54518557 48.54518557 0 0 1 48.54518557 48.54518557z"  /><path d="M560.54518557 75.09333333m48.54518442 0l339.81629668 0q48.54518557 0 48.54518556 48.54518557l0 0q0 48.54518557-48.54518556 48.54518443l-339.81629668 0q-48.54518557 0-48.54518442-48.54518443l0 0q0-48.54518557 48.54518442-48.54518557Z"  /><path d="M560.54518557 317.81925888m48.54518442 0l339.81629668 0q48.54518557 0 48.54518556 48.54518557l0 0q0 48.54518557-48.54518556 48.54518556l-339.81629668 0q-48.54518557 0-48.54518442-48.54518556l0 0q0-48.54518557 48.54518442-48.54518557Z"  /><path d="M560.54518557 609.09036999m48.54518442 0l339.81629668 0q48.54518557 0 48.54518556 48.54518556l0 0q0 48.54518557-48.54518556 48.54518557l-339.81629668 0q-48.54518557 0-48.54518442-48.54518557l0 0q0-48.54518557 48.54518442-48.54518556Z"  /><path d="M560.54518557 851.81629667m48.54518442 0l339.81629668 0q48.54518557 0 48.54518556 48.54518443l0 0q0 48.54518557-48.54518556 48.54518557l-339.81629668 0q-48.54518557 0-48.54518442-48.54518557l0 0q0-48.54518557 48.54518442-48.54518443Z"  /></svg>