<?xml version="1.0" standalone="no"?><!DOCTYPE svg PUBLIC "-//W3C//DTD SVG 1.1//EN" "http://www.w3.org/Graphics/SVG/1.1/DTD/svg11.dtd"><svg class="icon" width="200px" height="200.00px" viewBox="0 0 1024 1024" version="1.1" xmlns="http://www.w3.org/2000/svg"><path d="M953.344 176.5376h-176.5376a176.5376 176.5376 0 0 0-353.0752 0H247.1936a70.656 70.656 0 0 0-70.656 70.656v176.5376a176.5376 176.5376 0 1 0 0 353.0752v176.5888c0 38.9632 31.6416 70.6048 70.656 70.6048h247.1424v-70.656a105.9328 105.9328 0 1 1 211.8656 0V1024h247.1936A70.656 70.656 0 0 0 1024 953.344v-247.1424h-70.656a105.9328 105.9328 0 1 1 0-211.8656H1024V247.1936a70.656 70.656 0 0 0-70.656-70.656z m-176.5376 423.7312a176.5376 176.5376 0 0 0 176.5888 176.5376v176.5888h-176.5888a176.5376 176.5376 0 1 0-353.0752 0H247.1936v-247.1936h-70.656a105.9328 105.9328 0 1 1 0-211.8656h70.656V247.1936h247.1424v-70.656a105.9328 105.9328 0 1 1 211.8656 0v70.656h247.1936v176.5376a176.5376 176.5376 0 0 0-176.5888 176.5376z" /></svg>