<?xml version="1.0" standalone="no"?><!DOCTYPE svg PUBLIC "-//W3C//DTD SVG 1.1//EN" "http://www.w3.org/Graphics/SVG/1.1/DTD/svg11.dtd"><svg class="icon" width="200px" height="200.00px" viewBox="0 0 1024 1024" version="1.1" xmlns="http://www.w3.org/2000/svg"><path d="M512 97.74775309c231.98125827 0 414.25224691 182.27098864 414.25224691 414.25224691s-182.27098864 414.25224691-414.25224691 414.25224691-414.25224691-182.27098864-414.25224691-414.25224691S280.01874173 97.74775309 512 97.74775309M512 14.8973037C238.59351703 14.8973037 14.8973037 238.59351703 14.8973037 512s223.69621333 497.1026963 497.1026963 497.1026963 497.1026963-223.69621333 497.1026963-497.1026963S785.40648297 14.8973037 512 14.8973037L512 14.8973037zM553.42522469 387.72432592l306.54666272 0C851.68684247 371.15423605 843.40179753 346.29910124 835.11675259 329.72901136L553.42522469 329.72901136 553.42522469 387.72432592zM553.42522469 636.27567408l0 57.99531456 281.6915279 0c8.28504494-16.57008987 16.57008987-41.42522469 24.85513482-57.99531456L553.42522469 636.27567408zM553.42522469 785.40648297L553.42522469 843.40179753 677.70089876 843.40179753c33.14017975-16.57008987 57.99531457-33.14017975 82.85044939-57.99531456L553.42522469 785.40648297zM884.82702222 487.14486518l-331.40179753 0 0 57.99531457 331.40179753 0c0-8.28504494 0-16.57008987 0-33.14017975S884.82702222 495.42991013 884.82702222 487.14486518zM553.42522469 238.59351703L760.55134815 238.59351703c-24.85513482-24.85513482-49.71026963-41.42522469-82.85044939-57.99531456L553.42522469 180.59820247 553.42522469 238.59351703z" /></svg>