<?xml version="1.0" standalone="no"?><!DOCTYPE svg PUBLIC "-//W3C//DTD SVG 1.1//EN" "http://www.w3.org/Graphics/SVG/1.1/DTD/svg11.dtd"><svg class="icon" width="200px" height="200.00px" viewBox="0 0 1024 1024" version="1.1" xmlns="http://www.w3.org/2000/svg"><path d="M948.90666667 220.72888889l0 582.54222222c0 40.19541333-32.62236445 72.81777778-72.81777778 72.81777778l-764.58666667 0c0 40.19541333 32.62236445 72.81777778 72.81777778 72.81777778l764.58666667 0c40.19541333 0 72.81777778-32.62236445 72.81777778-72.81777778l0-582.54222222c0-40.19541333-32.62236445-72.81777778-72.81777778-72.81777778zM912.49777778 766.86222222l0-582.54222222c0-40.19541333-32.62236445-72.81777778-72.81777778-72.81777778l-764.58666667 0c-40.19541333 0-72.81777778 32.62236445-72.81777778 72.81777778l0 582.54222222c0 40.19541333 32.62236445 72.81777778 72.81777778 72.81777778l764.58666667 0c40.19541333 0 72.81777778-32.62236445 72.81777778-72.81777778zM75.09333333 184.32l764.58666667 0 0 582.54222222-764.58666667 0 0-582.54222222zM498.41948445 559.73205333l-108.78976-115.81667555-108.8261689 185.83096889-81.62872888-85.30602667-88.43719112 186.74119111 693.77137778 0-156.44899555-409.41795556-149.64053333 237.96849778zM220.72888889 439.18222222c40.19541333 0 72.81777778-32.62236445 72.81777778-72.81777777s-32.62236445-72.81777778-72.81777778-72.81777778-72.81777778 32.62236445-72.81777778 72.81777778 32.62236445 72.81777778 72.81777778 72.81777777z" /></svg>