<?xml version="1.0" standalone="no"?><!DOCTYPE svg PUBLIC "-//W3C//DTD SVG 1.1//EN" "http://www.w3.org/Graphics/SVG/1.1/DTD/svg11.dtd"><svg class="icon" width="48px" height="48.00px" viewBox="0 0 1024 1024" version="1.1" xmlns="http://www.w3.org/2000/svg"><path d="M0 0m200 0l624 0q200 0 200 200l0 624q0 200-200 200l-624 0q-200 0-200-200l0-624q0-200 200-200Z" fill="#E94709" /><path d="M326.66533333 786.132c-27.304 0-51.2-23.892-51.2-51.2v-191.144c0-27.308 23.896-51.2 51.2-51.2h283.308c40.96 0 75.092-34.136 75.092-75.096S650.93333333 342.4 609.97333333 342.4H326.66533333c-27.304 0-51.2-23.892-51.2-51.2 0-27.308 23.896-51.2 51.2-51.2h283.308c98.988 0 177.492 78.508 177.492 177.492 0 98.988-78.504 177.496-177.492 177.496H377.86533333v139.944c0 27.308-23.892 51.2-51.2 51.2z" fill="#FFFFFF" /></svg>