<?xml version="1.0" standalone="no"?>
<!DOCTYPE svg PUBLIC "-//W3C//DTD SVG 20010904//EN"
 "http://www.w3.org/TR/2001/REC-SVG-20010904/DTD/svg10.dtd">
<svg version="1" xmlns="http://www.w3.org/2000/svg"
 width="700pt" height="700pt" viewBox="0 0 700 700"
 preserveAspectRatio="xMidYMid meet">
<metadata>
Created by potrace 1.14, written by Peter Selinger 2001-2017
</metadata>
<g transform="translate(0,700) scale(0.1,-0.1)"
fill="#000000" stroke="none">
<path d="M 1320 6392 c -231 -25 -444 -224 -486 -454 c -6 -35 -7 -152 -1 -178 c 16 -70 23 -92 48 -143 c 73 -151 219 -268 385 -308 c 37 -9 452 -12 1654 -14 c 1169 -1 1616 -5 1645 -13 c 22 -6 49 -13 60 -15 c 53 -10 173 -65 240 -110 c 68 -46 168 -144 213 -209 c 154 -224 188 -503 91 -745 c -24 -60 -37 -84 -86 -159 c -108 -166 -273 -284 -468 -335 l -90 -23 l -1600 -2 c -1249 -1 -1613 -4 -1655 -14 c -223 -51 -412 -252 -438 -465 c -3 -27 -6 -534 -6 -1125 c 0 -996 2 -1079 18 -1135 c 69 -236 277 -403 511 -411 c 54 -2 111 2 141 10 c 192 51 352 207 410 401 c 17 55 18 120 19 842 c 1 430 4 785 8 789 c 3 4 604 8 1334 9 c 730 1 1351 5 1378 9 c 28 4 85 14 128 22 c 42 9 90 18 105 20 c 145 26 468 171 626 281 c 519 362 818 936 819 1573 c 0 85 -10 240 -19 282 c -2 13 -7 39 -10 58 c -5 29 -33 153 -48 210 c -17 65 -77 213 -121 302 c -254 511 -709 871 -1265 1002 c -58 13 -130 27 -160 31 c -30 4 -68 9 -85 12 c -29 6 -3245 11 -3295 5 z"/>
</g>
</svg>
